<svg xmlns="http://www.w3.org/2000/svg" width="13.36" height="17.757" viewBox="0 0 13.36 17.757">
  <g id="_2886699" data-name="2886699" transform="translate(-74.999 496.653)">
    <path id="Path_220" data-name="Path 220" d="M80.83-496.614A5,5,0,0,0,76.76-492.7a8.738,8.738,0,0,0-.089,1.779l-.018,1.447-.133.022a1.685,1.685,0,0,0-1.022.465,1.856,1.856,0,0,0-.288.358c-.218.4-.21.266-.21,4.477,0,3.735,0,3.871.074,4.1a1.655,1.655,0,0,0,.882,1.022l.277.137H87.123l.251-.118a1.98,1.98,0,0,0,.753-.668,2.024,2.024,0,0,0,.162-.38,26.436,26.436,0,0,0,.07-4.089c0-4.211.007-4.078-.21-4.477a1.855,1.855,0,0,0-.288-.358,1.685,1.685,0,0,0-1.022-.465l-.133-.022-.018-1.447A8.741,8.741,0,0,0,86.6-492.7a4.992,4.992,0,0,0-3.849-3.875A8.125,8.125,0,0,0,80.83-496.614Zm1.635,1.17a3.906,3.906,0,0,1,2.679,2.052,5.115,5.115,0,0,1,.41,2.713v1.211H77.8v-1.211a6.325,6.325,0,0,1,.2-2.2,3.936,3.936,0,0,1,2.237-2.373A4.035,4.035,0,0,1,82.465-495.444Zm-.081,8.968a1.606,1.606,0,0,1,.919,1.24,1.632,1.632,0,0,1-.856,1.679l-.207.1-.015.69c-.011.616-.018.709-.085.823a.545.545,0,0,1-.923,0c-.066-.114-.074-.207-.085-.823l-.015-.69-.207-.1a1.632,1.632,0,0,1-.856-1.679,1.627,1.627,0,0,1,1.1-1.318,1.415,1.415,0,0,1,.583-.066A1.228,1.228,0,0,1,82.384-486.476Z" transform="translate(0 0)"/>
  </g>
</svg>
